<svg xmlns="http://www.w3.org/2000/svg" version="1.1" xmlns:xlink="http://www.w3.org/1999/xlink" xmlns:svgjs="http://svgjs.com/svgjs" width="2600" height="250" preserveAspectRatio="none" viewBox="0 0 2600 250"><g mask="url(&quot;#SvgjsMask1033&quot;)" fill="none"><path d="M58 250L308 0L765.5 0L515.5 250z" fill="url(#SvgjsLinearGradient1034)"></path><path d="M508 250L758 0L1343 0L1093 250z" fill="url(#SvgjsLinearGradient1034)"></path><path d="M906 250L1156 0L1726 0L1476 250z" fill="url(#SvgjsLinearGradient1034)"></path><path d="M1327 250L1577 0L1715 0L1465 250z" fill="url(#SvgjsLinearGradient1034)"></path><path d="M2544 250L2294 0L2159 0L2409 250z" fill="url(#SvgjsLinearGradient1035)"></path><path d="M2133 250L1883 0L1337 0L1587 250z" fill="url(#SvgjsLinearGradient1035)"></path><path d="M1696 250L1446 0L810 0L1060 250z" fill="url(#SvgjsLinearGradient1035)"></path><path d="M1285 250L1035 0L919.5 0L1169.5 250z" fill="url(#SvgjsLinearGradient1035)"></path><path d="M2400.0860830106735 250L2600 50.08608301067346L2600 250z" fill="url(#SvgjsLinearGradient1034)"></path><path d="M0 250L199.91391698932654 250L 0 50.08608301067346z" fill="url(#SvgjsLinearGradient1035)"></path></g><defs><mask id="SvgjsMask1033"><rect width="2600" height="250" fill="#ffffff"></rect></mask><linearGradient x1="0%" y1="100%" x2="100%" y2="0%" id="SvgjsLinearGradient1034"><stop stop-color="rgba(20, 69, 165, 0.63)" offset="0"></stop><stop stop-opacity="0" stop-color="rgba(20, 69, 165, 0.63)" offset="0.66"></stop></linearGradient><linearGradient x1="100%" y1="100%" x2="0%" y2="0%" id="SvgjsLinearGradient1035"><stop stop-color="rgba(20, 69, 165, 0.63)" offset="0"></stop><stop stop-opacity="0" stop-color="rgba(20, 69, 165, 0.63)" offset="0.66"></stop></linearGradient></defs></svg>